<svg id="Decorative_icon" data-name="Decorative icon" xmlns="http://www.w3.org/2000/svg" width="16" height="16" viewBox="0 0 16 16">
  <rect id="Placement_Area" data-name="Placement Area" width="16" height="16" fill="red" opacity="0"/>
  <g id="Icon">
    <rect id="Canvas" width="16" height="16" fill="#464646" opacity="0"/>
    <path id="Path_21" data-name="Path 21" d="M12,8.97a.985.985,0,0,1-.293.7L7.716,13.636a1,1,0,0,1-1.732-.388.99.99,0,0,1,.3-.99l.024-.024L9.59,8.97,6.3,5.7a.99.99,0,0,1,.023-1.357,1,1,0,0,1,1.364-.069l.024.024,3.991,3.966a.985.985,0,0,1,.293.7Z" transform="translate(-0.996 -1.011)" fill="#161616"/>
  </g>
</svg>
